<svg xmlns="http://www.w3.org/2000/svg" viewBox="0 0 678.5 71"><path d="M679.1 35.3l-.7-4.6-.4-7.3.3-6.4.3-2.5.3-2 .3-1.7-.8 1.6c-.3.5-.6 1.1-.9 1.8l-1.1 2.5c-.8 1.8-1.5 4-2.3 6.4-.1.5-.3 1-.4 1.4l-2.5-8.8-3.1-8-1.4-3.1-1.2-2.4-1.1-2 .6 2.2c.2.7.4 1.6.6 2.6l.7 3.3.8 5-1.5 1.5-1 1.1c-1.4 1.5-2.9 3.5-4.4 5.6-.9 1.3-1.7 2.7-2.5 4.2-.3-.7-.5-1.5-.8-2.2l-2.6-6.1-1.1-2.4c-.3-.7-.7-1.3-.9-1.8l-.8-1.6s.1.6.4 1.8l.4 2 .4 2.6c.3 1.9.5 4.2.7 6.6l.1 7.4-.2 4.3c-.1.2-.1.4-.2.6l-.6 2.3-.3-2.6-1.3-8.3-2-8.1-2.3-6.9-1.1-2.7-.9-2.1-.8-1.8.3 2 .3 2.2.3 2.9.4 7.2-.2 8.1-.9 7.9-1.1 5.4.1-3.5c0-2.6-.2-5.4-.5-8.1l-1.5-7.9-2.1-6.7c-.3-1-.7-1.8-1-2.6s-.6-1.4-.9-2l-.8-1.7.3 1.9.3 2.1.3 2.8c.2 2 .2 4.4.1 6.8-.1 2.5-.4 5.1-.8 7.6a27.13 27.13 0 0 1-.9 4.1c-.2-.4-.3-.8-.5-1.2l-2.8-6.1c-1-1.9-2-3.6-3-5l-1.3-1.9c-.4-.6-.8-1-1.1-1.4-.6-.8-1-1.2-1-1.2s.2.5.5 1.5l.6 1.7.6 2.2c.5 1.6.8 3.6 1.2 5.6.3 2 .5 4.2.6 6.3.1 2.5 1.1 6.8-2.5 6.2-2.4-.4-3.1-3.4-2.8-5.4.5-3.3 1.5-6.6 2.8-9.7-3.3 3.7-5.3 8.4-8 12.1.2-3.3.9-6.6 1.8-9.7a87.31 87.31 0 0 1 2-6.1c.2-.5.4-1 .6-1.4.2-.5.4-.9.6-1.3s.4-.8.6-1.3c.2-.4.4-.7.5-1.1.3-.6.6-1 .8-1.3.1-.1.1-.2.2-.3l.2-.2c.2-.1.3-.1.4-.2h.1s-.1 0-.2-.1-.3-.1-.6-.2c-.3 0-.5-.1-1 .1-.4.2-1 .5-1.6 1.1-.3.2-.6.6-1 .9-.3.3-.7.7-1 1.1s-.7.8-1.1 1.2-.7.8-1.1 1.3c-1.1 1.3-2.2 2.7-3.3 4.3 0-1.1-.1-2.3-.2-3.3-.2-2.5-.5-4.9-.8-6.9-.2-1-.3-1.9-.5-2.7s-.3-1.5-.5-2.1c-.3-1.1-.4-1.8-.4-1.8s0 .7-.1 1.9c0 .6-.1 1.3-.1 2.1-.1.8-.1 1.7-.3 2.8-.2 2-.6 4.3-1.1 6.7-.4 1.8-.9 3.7-1.4 5.6-.4-.8-.7-1.6-1.1-2.4-.9-1.7-1.8-3.3-2.8-4.8l.8-2.2s-.3.4-.9 1c-.1.1-.2.3-.4.4l-1.2-1.8c-1.6-2.2-3.2-4.2-4.7-5.8-.4-.4-.7-.8-1.1-1.2l-1-1c-.6-.6-1.2-1.2-1.7-1.6-1-.8-1.5-1.3-1.5-1.3l1.1 1.7c.4.5.8 1.2 1.2 2 .2.4.5.8.7 1.2s.5.9.7 1.4c1 1.9 2 4.2 3 6.7l1.2 3.7c-1.6 2.1-3.5 4.6-5.3 7.3-.6-1.8-1.3-3.6-2.1-5.2-1-2.2-2-4.2-3-5.9-.5-.8-.9-1.6-1.3-2.3s-.8-1.2-1.1-1.7l-1-1.5a35.58 35.58 0 0 0 .5 1.7c.2.5.4 1.2.6 2 .1.5.3 1 .4 1.5-.3.4-.7.8-1.1 1.3s-.9 1.1-1.3 1.8c-1 1.4-2 3-3 4.9s-2 4-2.8 6.3c-.8 2.2-1.5 4.6-1.9 6.8-.1.4-.2.8-.2 1.2h-.4c.5-1.3.9-2.8 1.3-4.4.5-2.2.9-4.5 1.2-6.8.2-2.1.3-4.1.3-6.1.6-.9 1.2-1.8 1.8-2.5s1.1-1.4 1.6-2 .9-1.1 1.3-1.5c.7-.8 1.2-1.3 1.2-1.3s-.6.3-1.5.9c-.5.3-1.1.6-1.7 1.1-.8.5-1.7 1.1-2.7 1.9l-.3-3.4c-.1-.9-.2-1.7-.4-2.3-.1-.7-.2-1.3-.4-1.8l-.3-1.6s-.1.6-.2 1.6c0 .5-.1 1.1-.2 1.8s-.2 1.5-.4 2.3c-.3 1.8-.9 3.8-1.6 5.9l-.6.9c-.1.1-.3.2-.4.4-1.9 1.7-3.8 3.7-5.6 5.8l-1.4 1.7c-1-2.6-2.2-5.2-3.3-7.5-.5-1.1-1.1-2.2-1.6-3.2.5-4.2.8-8.2 1-11.5.2-2.3.2-4.1.3-5.5.1-1.3.1-2.1.1-2.1l-.6 2c-.4 1.3-.9 3.1-1.7 5.3a153.05 153.05 0 0 1-2.1 6.2l-2-3.5-1.1-1.9s.2.8.6 2.1 1 3.2 1.6 5.5v.1c-.8 2.3-1.8 4.7-2.7 7.1-.6 1.4-1.2 2.8-1.7 4.2-.7-1.3-1.4-2.5-2.2-3.6-1-1.5-2-2.9-2.9-4-.5-.6-.9-1.1-1.3-1.5-.2-.2-.4-.4-.5-.6l-.6-4.7c-.2-1-.3-1.9-.5-2.7s-.3-1.5-.5-2.1c-.3-1.1-.4-1.8-.4-1.8s0 .7-.1 1.9c0 .6-.1 1.3-.1 2.1-.1.8-.1 1.7-.3 2.8-.2 2-.6 4.3-1.1 6.7s-1.2 4.9-2 7.4c-.8 2.4-1.7 4.8-2.7 7-.4.8-.7 1.5-1.1 2.2-.9 1.7-3.5 1.1-3.5-.8s.3-3.8.6-5.4c.7-3.6 1.7-7.2 2.6-9.8.8-2.7 1.5-4.4 1.5-4.4s-.3.4-.9 1-1.4 1.6-2.3 2.7c-1.9 2.3-4.3 5.5-6.6 8.9-.2.2-.3.5-.5.7 0-2 .2-4.1.4-6 .3-2 .7-3.9 1.2-5.4.1-.4.2-.8.3-1.1.1-.4.2-.7.3-1 .2-.6.4-1.2.6-1.6.3-.9.5-1.4.5-1.4s-.4.4-1 1.2c-.3.4-.7.8-1.1 1.4-.2.3-.4.6-.7.9-.2.3-.5.7-.7 1-1 1.4-2.1 3.2-3.1 5.2s-2 4.3-2.7 6.7c-.4 1.1-.7 2.3-1 3.4.1-.5.1-1 .2-1.5.3-1.9.7-3.7 1.1-5.2.2-.8.4-1.4.6-2s.4-1.1.5-1.5c.3-.9.5-1.3.5-1.3s-.4.4-1 1.1c-.3.4-.7.8-1.1 1.3s-.9 1.1-1.3 1.8c-.8 1.1-1.6 2.5-2.5 3.9.6-5.2 1.1-10.4 1.4-14.3.2-2.3.2-4.1.3-5.5.1-1.3.1-2.1.1-2.1l-.6 2c-.4 1.3-.9 3.1-1.7 5.3-1.4 4.4-3.4 10.1-5.7 15.7-.7 1.8-1.5 3.7-2.3 5.4-.2-3.7-.6-7.3-1-10-.2-1.5-.5-2.7-.7-3.5s-.3-1.3-.3-1.3-.1.5-.2 1.4-.4 2.1-.7 3.6c-.6 3-1.7 6.8-3.1 10.4l-.9 2.1c.1-.2.1-.5.2-.7.5-1.8.9-4 1.2-6.3.2-2.3.3-4.8.2-7.2-.2-2.4-.6-4.9-1.1-7.1-.6-2.2-1.2-4.2-2-5.9-.2-.4-.3-.8-.5-1.2s-.4-.7-.5-1.1c-.3-.7-.6-1.2-.9-1.7l-.8-1.4s.1.6.4 1.7c.1.5.2 1.2.3 1.9.1.4.1.7.2 1.2 0 .4.1.8.1 1.3.2 1.8.1 3.8 0 5.9a36.02 36.02 0 0 1-1.2 6.4c-.4 1.4-.9 2.7-1.4 3.9 0-1.9-.1-3.8-.2-5.5l-.6-6.9c-.4-4-.8-6.6-.8-6.6s-.4 2.7-1.1 6.7c-.4 2-.8 4.3-1.4 6.8s-1.2 5.1-2 7.6-1.8 5-2.8 7.1c-.8 1.6-3.1 1.1-3.3-.6v-.4l.3-2.3c.3-1.8.6-3.5 1-5.2.4-1.6.9-3.2 1.4-4.4.2-.6.4-1.2.7-1.7.2-.5.4-1 .6-1.3.3-.7.5-1.1.5-1.1s-.4.3-1 .9c-.3.3-.7.6-1.1 1.1-.4.4-.9.9-1.4 1.5-.8.9-1.7 1.9-2.5 3.1.3-1.8.6-3.6 1-5.3.6-2.3 1.2-4.4 1.8-6.2.2-.4.3-.9.5-1.3s.3-.8.5-1.1c.3-.7.5-1.3.8-1.8.5-1 .7-1.6.7-1.6s-.4.5-1.2 1.4c-.4.4-.8 1-1.3 1.6a20.95 20.95 0 0 0-1.6 2.2c-1.2 1.6-2.4 3.6-3.7 5.9-1.2 2.3-2.4 4.8-3.5 7.4-1 2.6-1.9 5.3-2.6 8-.1.6-.3 1.1-.4 1.7-.6-1-3.7-6.8-1.9-3.2.6 1.2-1.3-2.4-1.8-3.6-.3-.6-.5-1.3-.8-2 .4-1.2 1-2.4 1.6-3.5.7-1.2 1.5-2.3 2.3-3l.6-.6c.2-.2.4-.3.5-.5.3-.3.6-.6.9-.8.5-.4.8-.6.8-.6s-.4.1-1.1.2c-.4 0-.8.2-1.3.3-.3.1-.5.1-.8.2l-.9.3c-1.2.4-2.5 1.1-3.9 2-.1-1.3-.2-2.7-.1-3.9.1-2.6.5-5.1 1.1-7.1s1.3-3.7 1.8-4.8l.9-1.7s-.5.5-1.3 1.5-2 2.4-3.1 4.4-2.3 4.5-3.1 7.4c-.8 2.7-1.2 5.7-1.3 8.8-.3-.7-.7-1.4-1.1-2.1-2.5-4.9-5.3-9.6-6.4-11.5-.2-1.9-.4-3.7-.7-5.3l-.3-1.9c-.1-.6-.3-1.1-.4-1.7l-.3-1.5c-.1-.5-.3-.9-.4-1.2-.4-1.5-.7-2.3-.7-2.3s.1.9.2 2.4c0 .4.1.8.1 1.3v3.2c0 .6 0 1.2-.1 1.9a58.1 58.1 0 0 1-1 8.7c-.6 2.8-1.3 5.7-2.3 8.5-.9-1.8-2-3.6-3-5.2-1.4-2-2.8-3.8-4.1-5.2-.3-.4-.6-.7-.9-1l-1-1c-.1-2.7-.3-5.2-.5-7.3l-.8-6.5-.3-2.4s-.1.9-.2 2.5-.3 3.9-.6 6.6c-.6 5.4-1.7 12.8-4.3 19.4-.7 1.6-1.4 3.2-2.2 4.7a32.07 32.07 0 0 1-2.6 4.1c-1 1.3-2 2.5-3 3.5.2-1.4.5-2.8.8-4.2.5-2.2 1.1-4.4 1.8-6.4l2-5.5a22.02 22.02 0 0 1 .9-2.1c.3-.6.5-1.2.8-1.6.4-.9.7-1.4.7-1.4s-.4.4-1.1 1.2c-.4.4-.8.8-1.3 1.4-.5.5-1.1 1.1-1.6 1.8a84.11 84.11 0 0 0-3.9 4.9c-1.3 1.9-2.7 3.9-4 6.1-.8 1.4-1.6 2.8-2.3 4.3l-.3-1.9c-.1-1.5-.1-3 0-4.3.2-1.4.4-2.7.8-3.7.1-.3.2-.5.3-.8.1-.2.2-.5.3-.7.2-.4.3-.8.5-1.1.3-.6.5-.9.5-.9l-.9.6c-.3.2-.6.5-1 .8-.2.2-.4.4-.6.5-.2.2-.4.4-.6.7-.9.9-1.9 2.2-2.8 3.7-.4.7-.8 1.5-1.2 2.3-.4-1.9-.6-3.9-.8-5.9-.2-2.4-.2-4.9-.1-7.2s.4-4.5.7-6.3c.1-.5.2-.9.2-1.3l.3-1.2c.2-.7.3-1.4.4-1.9.3-1.1.4-1.7.4-1.7l-.9 1.5c-.3.5-.6 1.1-1 1.8-.2.3-.4.7-.6 1.1s-.4.8-.6 1.3a48.09 48.09 0 0 0-2.6 6.3c-.3.2-.6.5-.9.7-.4.3-.7.6-1.1 1-1.5 1.3-3.2 3.1-4.9 5-1 1.2-2 2.5-2.9 3.9-.1-.9-.1-1.9-.1-2.9a73.43 73.43 0 0 1 .3-6.7c.2-2.1.5-4.1.9-5.8.2-.8.3-1.6.5-2.3s.3-1.3.5-1.7c.3-1 .4-1.5.4-1.5s-.3.5-.9 1.3c-.3.4-.6 1-1 1.6s-.8 1.3-1.3 2.1c-.9 1.6-1.9 3.5-2.8 5.6s-1.8 4.5-2.6 7v.1s0-.1-.1-.1c.1-.6.2-1.1.2-1.7.5-3 1.1-5.9 1.8-8.7.7-2.7 1.5-5.3 2.3-7.4.4-1.1.7-2 1.1-2.9.3-.9.6-1.6.9-2.2l.8-1.9s-.5.6-1.3 1.7c-.4.5-.9 1.2-1.5 2s-1.2 1.7-1.8 2.6c-1.3 2-2.7 4.3-4.2 7a64.87 64.87 0 0 0-2.9 5.9c-1.2-1.4-2.4-2.6-3.6-3.6-.5-.4-.9-.9-1.4-1.3-.1-.1-.2-.1-.3-.2 0-.5.1-1 .1-1.4l.3-2.5c.1-.8.2-1.4.3-2l.3-1.7-.8 1.6c-.3.5-.6 1.1-.9 1.8s-.7 1.5-1.1 2.5c0 .1-.1.2-.1.3-.1-.1-.3-.2-.4-.3-.4-.3-.7-.5-1-.7l-2-1.4s.6.6 1.7 1.8l.9.9c.2.2.4.4.5.7a102.72 102.72 0 0 0-1.8 5.2c-.1.5-.3 1-.4 1.4-.7-3-1.6-6-2.5-8.8-1-3-2.1-5.7-3.1-8-.5-1.2-1-2.2-1.4-3.1s-.8-1.7-1.2-2.4l-1.1-2s.2.8.6 2.2c.2.7.4 1.6.6 2.6s.5 2.1.7 3.3c.3 1.5.6 3.2.8 5l-1.5 1.5c-.3.3-.6.7-1 1.1-1.4 1.5-2.9 3.5-4.4 5.6-.9 1.3-1.7 2.7-2.5 4.2-.3-.7-.5-1.5-.8-2.2-.9-2.3-1.7-4.4-2.6-6.1l-1.1-2.4c-.3-.7-.7-1.3-.9-1.8l-.8-1.6s.1.6.4 1.8c.1.6.2 1.2.4 2 .1.8.3 1.7.4 2.6.3 1.9.5 4.2.7 6.6.1 2.4.2 4.9.1 7.4 0 1.5-.1 2.9-.2 4.3-.1.2-.1.4-.2.6l-.6 2.3-.3-2.6c-.3-2.7-.8-5.5-1.3-8.3a137.25 137.25 0 0 0-2-8.1c-.8-2.6-1.6-4.9-2.3-6.9-.4-1-.7-1.9-1.1-2.7a22.02 22.02 0 0 0-.9-2.1l-.8-1.8.3 2c.1.6.2 1.4.3 2.2l.3 2.9c.2 2.1.4 4.6.4 7.2s0 5.4-.2 8.1-.5 5.4-.9 7.9c-.3 1.9-.7 3.7-1.1 5.4 0-1.1.1-2.3.1-3.5 0-2.6-.2-5.4-.5-8.1-.4-2.7-.9-5.4-1.5-7.9-.7-2.5-1.3-4.8-2.1-6.7-.3-1-.7-1.8-1-2.6s-.6-1.4-.9-2l-.8-1.7s.1.7.3 1.9a52.78 52.78 0 0 1 .3 2.1c.1.8.2 1.8.3 2.8.2 2 .2 4.4.1 6.8-.1 2.5-.4 5.1-.8 7.6l-.3 1.8c0 1.1-.1 2.2-.2 3.3-.3 2.4-3.8 2.1-3.8-.3.1-2.1.3-4.3.6-6.3s.7-4 1.2-5.6c.2-.8.4-1.6.6-2.2.2-.7.4-1.3.6-1.7.3-1 .5-1.5.5-1.5s-.4.4-1 1.2c-.3.4-.7.9-1.1 1.4-.4.6-.9 1.2-1.3 1.9-1 1.4-2 3.1-3 5s-2 3.9-2.8 6.1c-.2.4-.3.8-.5 1.2l-.9-4.1c-.4-2.5-.7-5.1-.8-7.6s0-4.8.1-6.8l.3-2.8c.1-.8.2-1.6.3-2.1l.3-1.9s-.3.6-.8 1.7c-.3.5-.5 1.2-.9 2-.3.8-.7 1.6-1 2.6-.7 1.9-1.4 4.2-2.1 6.7-.6 2.5-1.1 5.2-1.5 7.9-.3 2.7-.5 5.5-.6 8.1 0 1.2 0 2.4.1 3.5-.4-1.6-.7-3.4-1.1-5.4-.4-2.5-.7-5.2-.9-7.9s-.3-5.5-.2-8.1.2-5.1.4-7.2l.3-2.9a40.14 40.14 0 0 1 .3-2.2c.2-1.2.3-2 .3-2s-.3.6-.8 1.8a22.02 22.02 0 0 0-.9 2.1c-.3.8-.7 1.7-1.1 2.7a61.82 61.82 0 0 0-2.3 6.9c-.8 2.6-1.4 5.3-2 8.1s-1 5.6-1.3 8.3l-.3 2.6-.6-2.3c-.1-.2-.1-.4-.2-.6-.1-1.4-.2-2.9-.2-4.3-.1-2.5 0-5 .1-7.4.2-2.4.4-4.6.7-6.6.1-1 .3-1.8.4-2.6s.3-1.5.4-2c.2-1.1.4-1.8.4-1.8l-.8 1.6c-.3.5-.6 1.1-.9 1.8-.4.7-.7 1.5-1.1 2.4-.8 1.8-1.7 3.8-2.6 6.1-.3.7-.5 1.4-.8 2.2-.8-1.5-1.6-2.9-2.5-4.2-1.5-2.2-3-4.1-4.4-5.6-.3-.4-.7-.8-1-1.1l-1.5-1.5c.2-1.8.5-3.5.8-5 .2-1.2.5-2.4.7-3.3.2-1 .4-1.9.6-2.6l.6-2.2s-.4.7-1.1 2l-1.2 2.4-1.4 3.1c-1 2.3-2.1 5-3.1 8-.9 2.8-1.8 5.7-2.5 8.8-.1-.5-.3-1-.4-1.4-.6-1.9-1.2-3.7-1.8-5.2a3.04 3.04 0 0 0 .5-.7c.3-.4.6-.6.9-.9 1.1-1.1 1.7-1.8 1.7-1.8l-2 1.4c-.3.2-.7.4-1 .7-.1.1-.3.2-.4.3 0-.1-.1-.2-.1-.3-.4-.9-.7-1.7-1.1-2.5-.3-.7-.6-1.3-.9-1.8l-.8-1.6.3 1.7c.1.5.2 1.2.3 2l.3 2.5c.1.5.1.9.1 1.4-.1.1-.2.1-.3.2-.5.4-.9.8-1.4 1.3-1.2 1-2.4 2.2-3.6 3.6a107.65 107.65 0 0 0-2.9-5.9c-1.5-2.6-2.9-5-4.2-7-.6-1-1.3-1.9-1.8-2.6-.5-.8-1-1.4-1.5-2-.8-1.1-1.3-1.7-1.3-1.7l.8 1.9c.3.6.6 1.4.9 2.2.3.9.7 1.8 1.1 2.9.8 2.1 1.5 4.7 2.3 7.4.7 2.7 1.3 5.7 1.8 8.7.1.6.2 1.1.2 1.7 0 0 0 .1-.1.1v-.1c-.7-2.5-1.6-4.8-2.6-7-1-2.1-1.9-4.1-2.8-5.6-.4-.8-.9-1.5-1.3-2.1s-.7-1.2-1-1.6c-.6-.9-.9-1.3-.9-1.3a16.68 16.68 0 0 0 .4 1.5c.1.5.3 1.1.5 1.7.2.7.4 1.4.5 2.3.4 1.7.7 3.7.9 5.8s.3 4.4.3 6.7c0 1-.1 1.9-.1 2.9-.9-1.4-1.9-2.7-2.9-3.9-1.7-2-3.4-3.7-4.9-5-.4-.3-.7-.7-1.1-1-.3-.2-.6-.5-.9-.7-.9-2.4-1.7-4.5-2.6-6.3-.2-.4-.4-.9-.6-1.3s-.4-.8-.6-1.1l-1-1.8-.9-1.5s.2.6.4 1.7c.1.5.3 1.2.4 1.9l.3 1.2c.1.4.1.9.2 1.3.3 1.8.5 4 .7 6.3.1 2.3.1 4.8-.1 7.2-.2 2-.5 4-.8 5.9-.4-.8-.8-1.6-1.2-2.3-.9-1.5-1.9-2.7-2.8-3.7-.2-.2-.4-.5-.6-.7s-.4-.4-.6-.5c-.4-.3-.7-.6-1-.8l-.9-.6s.2.3.5.9c.2.3.3.6.5 1.1.1.2.2.4.3.7.1.2.2.5.3.8.4 1.1.6 2.4.8 3.7.1 1.4.2 2.9 0 4.3l-.3 1.9c-.7-1.4-1.5-2.9-2.3-4.3-1.3-2.2-2.7-4.2-4-6.1a84.11 84.11 0 0 0-3.9-4.9c-.6-.7-1.1-1.3-1.6-1.8s-.9-1-1.3-1.4c-.7-.7-1.1-1.2-1.1-1.2s.3.5.7 1.4l.8 1.6a22.02 22.02 0 0 1 .9 2.1c.7 1.6 1.3 3.4 2 5.5.7 2 1.3 4.2 1.8 6.4.3 1.4.6 2.8.8 4.2-1-1-2-2.2-3-3.5-.9-1.3-1.8-2.7-2.6-4.1-.8-1.5-1.5-3.1-2.2-4.7-2.6-6.6-3.7-13.9-4.3-19.4-.3-2.7-.5-5-.6-6.6s-.2-2.5-.2-2.5l-.3 2.4-.8 6.5c-.2 2.2-.4 4.6-.5 7.3l-1 1c-.3.3-.6.7-.9 1-1.3 1.4-2.7 3.2-4.1 5.2a37.22 37.22 0 0 0-3 5.2c-1-2.8-1.8-5.7-2.3-8.5a58.1 58.1 0 0 1-1-8.7c0-.7-.1-1.3-.1-1.9V6.8c0-.5.1-.9.1-1.3.1-1.6.2-2.4.2-2.4s-.3.8-.7 2.3c-.1.4-.2.8-.4 1.2-.1.5-.2.9-.3 1.5-.1.5-.3 1.1-.4 1.7l-.3 1.9c-.3 1.6-.5 3.4-.7 5.3-1.2 1.9-3.9 6.6-6.4 11.5-.4.7-.7 1.4-1.1 2.1 0-3.1-.5-6.1-1.3-8.8-.8-2.9-1.9-5.4-3.1-7.4-1.1-2-2.3-3.4-3.1-4.4-.9-1-1.3-1.5-1.3-1.5a60.21 60.21 0 0 0 .9 1.7c.5 1.1 1.2 2.7 1.8 4.8.6 2 1 4.5 1.1 7.1 0 1.3 0 2.6-.1 3.9-1.4-.9-2.7-1.6-3.9-2l-.9-.3c-.3-.1-.6-.2-.8-.2-.5-.1-.9-.3-1.3-.3-.7-.1-1.1-.2-1.1-.2s.3.2.8.6c.3.2.6.4.9.8l1.1 1.1c.8.8 1.6 1.9 2.3 3 .6 1.1 1.2 2.3 1.6 3.5-.3.7-.4 1.4-.8 2-.5 1.2-2.4 4.8-1.8 3.6 1.8-3.6-1.2 2.1-1.9 3.2-.1-.5-.3-1.1-.4-1.7-.7-2.6-1.6-5.3-2.6-8-1.1-2.6-2.3-5.1-3.5-7.4-1.3-2.2-2.5-4.2-3.7-5.9l-1.6-2.2c-.5-.6-.9-1.2-1.3-1.6-.7-.9-1.2-1.4-1.2-1.4s.3.6.7 1.6c.2.5.5 1.1.8 1.8.1.4.3.7.5 1.1.1.4.3.8.5 1.3.7 1.8 1.2 3.9 1.8 6.2.4 1.7.7 3.5 1 5.3-.9-1.2-1.7-2.2-2.5-3.1-.5-.6-1-1-1.4-1.5l-1.1-1.1c-.6-.6-1-.9-1-.9a22.84 22.84 0 0 0 .5 1.1c.2.4.4.8.6 1.3s.4 1.1.7 1.7c.5 1.3.9 2.8 1.4 4.4.4 1.6.8 3.4 1 5.2l.3 2.3v.4c-.1 1.7-2.5 2.1-3.3.6-1-2.2-2-4.6-2.8-7.1s-1.5-5.1-2-7.6l-1.4-6.8-1.1-6.7-.8 6.6-.6 6.9c-.1 1.8-.2 3.6-.2 5.5-.5-1.2-1-2.5-1.4-3.9a36.02 36.02 0 0 1-1.2-6.4c-.2-2.1-.2-4.2 0-5.9 0-.4.1-.9.1-1.3.1-.4.1-.8.2-1.2.1-.7.2-1.4.3-1.9.2-1.1.4-1.7.4-1.7s-.3.5-.8 1.4c-.3.5-.6 1-.9 1.7-.2.3-.3.7-.5 1.1s-.3.8-.5 1.2c-.7 1.7-1.4 3.7-2 5.9-.5 2.2-.9 4.6-1.1 7.1-.1 2.4-.1 4.9.2 7.2s.7 4.5 1.2 6.3c.1.3.1.5.2.7l-.9-2.1c-1.4-3.6-2.5-7.5-3.1-10.4l-.7-3.6c-.1-.9-.2-1.4-.2-1.4s-.1.5-.3 1.3-.4 2.1-.7 3.5c-.5 2.7-.9 6.3-1 10-.8-1.8-1.5-3.6-2.3-5.4-2.3-5.6-4.3-11.3-5.7-15.7l-1.7-5.3-.6-2a30.36 30.36 0 0 0 .1 2.1c.1 1.3.1 3.2.3 5.5.2 4 .7 9.1 1.4 14.3-.8-1.5-1.7-2.8-2.5-3.9-.5-.7-.9-1.3-1.3-1.8s-.8-1-1.1-1.3c-.6-.7-1-1.1-1-1.1l.5 1.3c.2.4.3.9.5 1.5s.4 1.3.6 2c.4 1.5.8 3.3 1.1 5.2.1.5.1 1 .2 1.5-.3-1.2-.6-2.3-1-3.4a58.47 58.47 0 0 0-2.7-6.7c-1.1-2-2.1-3.8-3.1-5.2-.2-.4-.5-.7-.7-1s-.5-.6-.7-.9c-.4-.6-.8-1-1.1-1.4l-1-1.2s.2.5.5 1.4c.2.4.4 1 .6 1.6a12.59 12.59 0 0 1 .3 1c.1.4.2.7.3 1.1.5 1.6.8 3.4 1.2 5.4.3 1.9.4 3.9.4 6-.2-.2-.3-.5-.5-.7-2.3-3.4-4.7-6.6-6.6-8.9-.9-1.1-1.8-2.1-2.3-2.7-.6-.6-.9-1-.9-1l1.5 4.4c.8 2.7 1.8 6.2 2.6 9.8.3 1.5.7 3.5.6 5.4 0 2-2.6 2.6-3.5.8-.4-.7-.7-1.5-1.1-2.2-1-2.2-1.9-4.5-2.7-7-.8-2.4-1.5-5-2-7.4s-.9-4.7-1.1-6.7l-.3-2.8c-.1-.8-.1-1.5-.1-2.1-.1-1.2-.1-1.9-.1-1.9s-.2.7-.4 1.8c-.1.6-.3 1.3-.5 2.1s-.3 1.7-.5 2.7c-.2 1.4-.5 3-.6 4.7-.2.2-.3.4-.5.6-.4.4-.8.9-1.3 1.5-.9 1.1-1.9 2.5-2.9 4-.7 1.1-1.5 2.3-2.2 3.6-.6-1.4-1.2-2.8-1.7-4.2-1-2.4-1.9-4.8-2.7-7.1v-.1c.6-2.3 1.2-4.2 1.6-5.5s.6-2.1.6-2.1l-1.1 1.9-2 3.5c-.8-2.2-1.5-4.4-2.1-6.2l-1.7-5.3-.6-2a30.36 30.36 0 0 0 .1 2.1c.1 1.3.1 3.2.3 5.5.2 3.2.5 7.2 1 11.5-.5 1-1.1 2.1-1.6 3.2-1.1 2.4-2.3 4.9-3.3 7.5l-1.4-1.7c-1.8-2.1-3.7-4.1-5.6-5.8-.1-.1-.3-.2-.4-.4l-.6-.9c-.7-2.1-1.2-4.1-1.6-5.9-.2-.9-.3-1.6-.4-2.3s-.2-1.3-.2-1.8c-.1-1-.2-1.6-.2-1.6s-.1.6-.3 1.6c-.1.5-.2 1.1-.4 1.8-.1.7-.3 1.5-.4 2.3l-.3 3.4c-1-.8-1.9-1.4-2.7-1.9-.7-.4-1.2-.8-1.7-1.1l-1.5-.9s.4.5 1.2 1.3c.4.4.8.9 1.3 1.5s1 1.2 1.6 2 1.2 1.6 1.8 2.5c0 2 .1 4 .3 6.1.3 2.3.7 4.7 1.2 6.8.4 1.6.8 3.1 1.3 4.4h-.4c-.1-.4-.2-.8-.2-1.2-.5-2.3-1.2-4.6-1.9-6.8-.8-2.2-1.8-4.4-2.8-6.3s-2.1-3.6-3-4.9c-.5-.7-.9-1.3-1.3-1.8s-.8-1-1.1-1.3c.1-.5.3-1 .4-1.5.2-.8.4-1.4.6-2 .3-1.1.5-1.7.5-1.7s-.4.5-1 1.5c-.3.5-.7 1-1.1 1.7s-.9 1.4-1.3 2.3c-1 1.7-2 3.7-3 5.9L83 31.5c-1.8-2.7-3.6-5.2-5.3-7.3l1.2-3.7c.9-2.5 1.9-4.8 3-6.7.3-.5.5-.9.7-1.4.3-.4.5-.8.7-1.2.5-.8.9-1.4 1.2-2l1.1-1.7s-1.1 1.1-2.1 2c-.5.4-1 1-1.7 1.6-.3.3-.7.6-1 1s-.7.8-1.1 1.2c-1.5 1.6-3.1 3.6-4.7 5.8l-1.2 1.8-.4-.4c-.6-.6-.9-1-.9-1l.8 2.2c-1 1.5-1.9 3.1-2.8 4.8-.4.8-.8 1.6-1.1 2.4-.6-1.9-1-3.7-1.4-5.6-.5-2.4-.9-4.7-1.1-6.7l-.3-2.8c-.1-.9-.1-1.6-.1-2.2-.1-1.2-.1-1.9-.1-1.9s-.2.7-.4 1.8c-.1.6-.3 1.3-.5 2.1s-.3 1.7-.5 2.7c-.4 2-.6 4.3-.8 6.9-.1 1.1-.1 2.2-.2 3.3-1.1-1.5-2.2-3-3.3-4.3-.4-.4-.7-.9-1.1-1.3s-.7-.8-1.1-1.2c-.3-.4-.7-.7-1-1.1-.3-.3-.7-.7-1-.9-.6-.5-1.2-.9-1.6-1.1s-.7-.1-1-.1-.5.1-.6.2-.2.1-.2.1h.1c.1 0 .2.1.4.2.1 0 .2.1.2.2.1.1.1.2.2.3.2.3.5.7.8 1.3.2.3.3.7.5 1.1s.4.8.6 1.3c.2.4.4.9.6 1.3.2.5.4.9.6 1.4.8 1.9 1.5 4 2 6.1.9 3.1 1.6 6.4 1.8 9.7-2.8-3.7-4.7-8.4-8-12.1 1.3 3.1 2.3 6.4 2.8 9.7.3 2-.4 5-2.8 5.4-3.4.6-2.4-3.6-2.4-6.2.1-2.1.3-4.3.6-6.3s.7-4 1.2-5.6c.2-.8.4-1.6.6-2.2.2-.7.4-1.3.6-1.7.3-1 .5-1.5.5-1.5s-.4.4-1 1.2c-.3.4-.7.9-1.1 1.4-.4.6-.9 1.2-1.3 1.9-1 1.4-2 3.1-3 5s-2 3.9-2.8 6.1c-.2.4-.3.8-.5 1.2l-.9-4.1c-.4-2.5-.7-5.1-.8-7.6s0-4.8.1-6.8l.3-2.8c.1-.8.2-1.6.3-2.1l.3-1.9s-.3.6-.8 1.7c-.3.5-.5 1.2-.9 2-.3.8-.7 1.6-1 2.6-.7 1.9-1.4 4.2-2.1 6.7-.6 2.5-1.1 5.2-1.5 7.9-.3 2.7-.5 5.5-.6 8.1 0 1.2 0 2.4.1 3.5-.4-1.6-.7-3.4-1.1-5.4-.4-2.5-.7-5.2-.9-7.9s-.3-5.5-.2-8.1.2-5.1.4-7.2l.3-2.9a40.14 40.14 0 0 1 .3-2.2c.2-1.2.3-2 .3-2s-.3.6-.8 1.8a22.02 22.02 0 0 0-.9 2.1c-.3.8-.7 1.7-1.1 2.7a61.82 61.82 0 0 0-2.3 6.9c-.8 2.6-1.4 5.3-2 8.1s-1 5.6-1.3 8.3l-.3 2.6-.6-2.3c-.1-.2-.1-.4-.2-.6-.1-1.4-.2-2.9-.2-4.3-.1-2.5 0-5 .1-7.4.2-2.4.4-4.6.7-6.6.1-1 .3-1.8.4-2.6s.3-1.5.4-2c.2-1.1.4-1.8.4-1.8l-.8 1.6c-.3.5-.6 1.1-.9 1.8-.4.7-.7 1.5-1.1 2.4-.8 1.8-1.7 3.8-2.6 6.1-.3.7-.5 1.4-.8 2.2-.8-1.5-1.6-2.9-2.5-4.2-1.5-2.2-3-4.1-4.4-5.6-.3-.4-.7-.8-1-1.1l-1.5-1.5c.2-1.8.5-3.5.8-5 .2-1.2.5-2.4.7-3.3.2-1 .4-1.9.6-2.6l.6-2.2s-.4.7-1.1 2L13 5.4l-1.4 3.1c-1 2.3-2.1 5-3.1 8-.9 2.8-1.8 5.7-2.5 8.8-.1-.5-.3-1-.4-1.4-.8-2.4-1.5-4.6-2.3-6.4-.4-.9-.7-1.7-1.1-2.5-.3-.7-.6-1.3-.9-1.8l-.8-1.6.3 1.7c.1.5.2 1.2.3 2 .3 0 .4.8.5 1.7.2 1.9.3 4 .3 6.4 0 2.3-.1 4.8-.4 7.3-.2 1.6-.4 3.1-.7 4.6.1 0-1.3.7-1.3.7-.2-2.1.4 35.5 0 35l342.3.5 337.7-.5-.4-35.7zM18 40.7c-1.5 2.3-2.6 2.4-3.5 1.5-1.2-1.3-1.8-4.7-2-6.5-.3-2.9-.5-6.1-.6-9.3 0-3.2.1-6.4.4-9.5.1-.6.1-1.3.2-1.9.2.3.3.6.5.9.2.4.4.8.6 1.3.9 1.7 1.7 3.9 2.5 6.1.7 2.3 1.4 4.8 1.8 7.3.5 2.8 1.9 7.3.1 10.1zM75.4 43c-.1-.2-.2-.3-.3-.5-.1-1.7-.1-3.7 0-5.8s.4-4.2.8-6.5c.3 1.1.5 2.3.8 3.4a104.04 104.04 0 0 1 1.5 9.3l-2.8.1zm14.6-.2c-.5.5-1.2.1-2.1-1.6a56.83 56.83 0 0 1-.3-5.9c0-2.4.2-4.9.4-7.3a84.39 84.39 0 0 1 1.1-6.4v-.2c.1.3.2.5.3.8.2.6.4 1.3.6 2 .4 1.5.8 3.3 1.1 5.2s.4 3.9.5 6c0 1.3-.3 6.4-1.6 7.4zm25.4.2c-.1-.1-.1-.1 0 0-.8-1.4-1.1-3-1-4.6 0-.6.1-1.1.2-1.7.2-1.7.5-3.4.8-5.1.6 4.1 1.3 8.1 2 11.4h-2zm12.5 0l-.1-.1c-.1-.9-.3-1.9-.4-2.9-.1-1.6-.2-3.4-.1-5.2a49.54 49.54 0 0 1 .6-5.4c.3-1.7.7-3.4 1.1-4.7-.1 2.2-.2 4.6-.1 7 .1 2.7.3 5.4.6 8 .1.4.1.8.2 1.3.2 1-.7 2-1.8 2zm94.2-2.4c-.3 1.4-1.5 2.3-2.9 2.3v-1.8c0-2.7 0-6.3.2-10 .1-2.7.3-5.4.6-7.8 0 2.7.2 5.4.5 8.2.4 2.9 1 5.8 1.7 8.6 0 .2 0 .4-.1.5zm9.5-1.7c-.1.5-.3 1-.4 1.4-.1-.2-.3-.5-.4-.7-.1-2 0-4.2.2-6.4.3-2.3.8-4.7 1.4-6.9.7-2.2 1.4-4.2 2.3-5.9.1-.3.3-.5.4-.8 0 3.2.2 6.6.7 10.1-1.4 2.3-3.1 5.5-4.2 9.2zm6.5 4.1a12.66 12.66 0 0 1-.6-2.8c-.2-1.2-.2-2.4-.2-3.7.6 1.9 1.2 3.7 2 5.4.2.4.3.7.5 1.1h-1.7zm32-3.8c0-.5 0-1-.1-1.5-.2-2.7-.6-5.5-1.1-8.2-.3-1.2-.5-2.4-.9-3.6.7 1.3 1.5 2.8 2.2 4.3 1 2.2 1.8 4.5 2.5 7 .5 1.9.9 3.9 1.2 5.7-2 .1-3.7-1.6-3.8-3.7zm22.3-8.5c-.2 1.6-.4 3.1-.7 4.6-.8-2.7-1.9-5.5-3-8.3 1.1-2.1 2.3-4.1 3.5-5.7.2-.2.3-.4.4-.6 0 .9.1 1.8.1 2.8.1 2.3 0 4.7-.3 7.2zm17 8.5c-.2 1.3-.5 2.6-.6 3.8-2.5 0-4.7-1.8-5.1-4.3-.1-.9-.3-1.9-.4-2.9-.3-2.9-.5-6.1-.6-9.3 0-3.2.1-6.4.4-9.5.1-.6.1-1.3.2-1.9.2.3.3.6.5.9.2.4.4.8.6 1.3.9 1.7 1.7 3.9 2.5 6.1.7 2.3 1.4 4.8 1.8 7.3s.7 5.1.7 7.4v1.1zm67.3-3.5c-.1 1-.3 2-.4 2.9-.4 2.5-2.5 4.3-5.1 4.3l-.6-3.8v-1.2c.1-2.4.3-4.9.7-7.4.5-2.5 1.1-5 1.8-7.3.8-2.3 1.6-4.4 2.5-6.1.2-.4.4-.9.6-1.3.2-.3.3-.6.5-.9.1.6.1 1.3.2 1.9.3 3.1.4 6.3.4 9.5-.1 3.3-.3 6.4-.6 9.4zm11.6-.4c-.3-1.5-.5-3-.7-4.6-.2-2.5-.4-4.9-.4-7.3 0-1 0-1.9.1-2.8.1.2.3.4.4.6 1.2 1.6 2.4 3.6 3.5 5.7-1.1 2.8-2.1 5.6-2.9 8.4zm22.8-5.7c-.5 2.7-.9 5.5-1.1 8.2 0 .5-.1 1-.1 1.5-.1 2.1-1.8 3.7-3.8 3.7.3-1.9.7-3.8 1.2-5.7.7-2.4 1.5-4.8 2.5-7 .7-1.6 1.5-3 2.2-4.3-.4 1.1-.7 2.3-.9 3.6zm31.4 10.6a12.66 12.66 0 0 1-.6 2.8h-1.6c.2-.4.3-.7.5-1.1.8-1.7 1.4-3.5 2-5.4a23.08 23.08 0 0 1-.3 3.7zm6.7-.5c-.1.2-.3.5-.4.7-.1-.5-.2-1-.4-1.4-1.1-3.7-2.8-6.9-4.2-9.2.5-3.5.7-6.9.7-10.1.1.3.3.5.4.8.8 1.7 1.6 3.8 2.3 5.9.6 2.2 1.1 4.6 1.4 6.9.3 2.1.3 4.3.2 6.4zm11.6 1.4v1.8c-1.4 0-2.6-1-2.9-2.3 0-.1-.1-.3-.1-.4.7-2.8 1.3-5.7 1.7-8.6.3-2.8.5-5.5.5-8.2.2 2.4.5 5.1.6 7.8.2 3.6.3 7.3.2 9.9zm91.8-1.2c-.1 1.1-.2 2-.4 2.9l-.1.1c-1.1 0-2-1-1.8-2.1.1-.4.1-.8.2-1.3.3-2.5.5-5.3.6-8l-.1-7c.4 1.4.8 3 1.1 4.7s.5 3.6.6 5.4c.1 1.9.1 3.7-.1 5.3zm12.1 3h-1.9c.7-3.3 1.3-7.3 2-11.4.3 1.7.6 3.4.8 5.1.1.6.1 1.1.2 1.7 0 1.7-.3 3.2-1.1 4.6zm27.5-1.7c-.9 1.7-1.6 2-2.1 1.6-1.2-1-1.6-6.1-1.6-7.4.1-2 .2-4.1.5-6s.7-3.7 1.1-5.2c.2-.8.4-1.4.6-2 .1-.3.2-.6.3-.8v.2a84.39 84.39 0 0 1 1.1 6.4c.3 2.3.4 4.8.4 7.3l-.3 5.9zm12.7 1.3c-.1.2-.2.3-.3.5h-2.7a104.04 104.04 0 0 1 1.5-9.3c.2-1.2.5-2.3.8-3.4.4 2.2.6 4.4.8 6.5.1 2 .1 3.9-.1 5.7zm62.6-6.8c-.2 1.9-.8 5.2-2 6.5-.8.9-2 .8-3.5-1.5-1.8-2.8-.4-7.3.1-10.1.5-2.5 1.1-5 1.8-7.3.8-2.3 1.6-4.4 2.5-6.1.2-.4.4-.9.6-1.3.2-.3.3-.6.5-.9.1.6.1 1.3.2 1.9.3 3.1.4 6.3.4 9.5a136.27 136.27 0 0 1-.6 9.3z" fill="#fff"/></svg>