<svg xmlns="http://www.w3.org/2000/svg" viewBox="0 0 225 75"><style><![CDATA[.A{fill:#fff}]]></style><path class="A" d="M221 45.8s-.3.1-.7.4l-2.1.9c-.9.4-2 .8-3.3 1.2l-2.1.7-2.3.7-2.6.7-2.8.6c-1.9.4-3.9.7-6 .9-.5 0-1.1.1-1.6.1h-1.7c-1.1 0-2.2 0-3.3-.1-.6 0-1.1-.1-1.7-.2l-.9-.1h-.8l-.4-.1-.5-.2c-.3-.1-.6-.2-.9-.4-.6-.3-1.2-.6-1.7-1.1-1-.8-1.8-1.9-2.3-3.1l-.4-1v-.5l-.3-1.2-.1-.9c-.3-2.3-.3-4.4-.2-6.5s.4-4 .7-5.9l1.2-5.2c.1-.4.2-.8.4-1.2.1-.4.2-.7.4-1.1.2-.7.5-1.4.7-2s.5-1.2.7-1.7c.1-.3.2-.5.4-.7.1-.2.2-.5.4-.7l.6-1.1.5-.8c.3-.4.4-.7.4-.7s-.1.2-.4.7c-.1.2-.3.5-.4.8-.2.3-.3.7-.5 1.1-.1.2-.2.4-.3.7-.1.2-.2.5-.3.8l-.6 1.7-.6 2-.3 1.1c-.1.4-.2.8-.2 1.2-.4 1.6-.6 3.3-.8 5.1s-.2 3.8-.2 5.8c0 1 .1 2 .2 3 0 .2 0 .5.1.7 0 .2.1.5.1.7l.1.7.4 1.4.3 1.2v.3c0-.1 0 0 0 0l.1.3.2.3c.4.8 1 1.5 1.7 1.9l1.1.6c.2.1.4.1.6.2h.7c.5 0 1 0 1.5.1.5 0 1 .1 1.5 0 1 0 2 0 3-.2.5 0 1-.1 1.5-.2s1-.2 1.5-.2c1.9-.3 3.8-.8 5.5-1.3.9-.2 1.7-.5 2.5-.8l2.3-.8 2.1-.8 1.9-.8 3-1.4 1.9-.9c.4-.2.6-.4.6-.4 1.3-.7 3-.2 3.7 1.1s.2 3-1.1 3.7c.1.9 0 .9-.1.9zm-44.6-30.3v1l.1 2.9c.1 2.5.2 6 .1 10.3s-.2 9.2-.8 14.6l-.6 4.1c-.3 1.4-.6 2.8-1.1 4.2-.2.4-.3.7-.5 1.1l-.3.6-.1.1v.1l-.2.2-.3.4-.4.5c-.3.4-.5.6-.8.9-1.1 1.1-2.4 2-3.7 2.8-2.6 1.5-5.5 2.3-8.4 2.7s-5.7.4-8.4-.2c-2.7-.5-5.2-1.5-7.3-3l-.4-.3c-.1 0 0 0 0 0l-.6-.6c-.1-.1-.2-.2-.3-.4-.1-.1-.2-.2-.3-.4l-.3-.4c-.2-.2-.3-.6-.5-.8-.6-1.1-.6-2.4-.5-3.5.2-1.1.5-2.1.9-3a13.77 13.77 0 0 1 1.4-2.4 42.59 42.59 0 0 1 2.8-3.5c.9-.9 1.5-1.6 2-2s.7-.7.7-.7-.3.2-.7.7c-.5.5-1.1 1.2-1.9 2.1s-1.7 2.1-2.6 3.6c-.4.7-.8 1.5-1.2 2.4s-.6 1.8-.7 2.8.1 2 .6 2.9c.1.2.2.4.4.6l.2.3.6.6.4.3.3.3.4.2c1.9 1.3 4.3 2 6.8 2.3s5.1.2 7.7-.3 5.1-1.5 7.3-2.9c1.1-.7 2.1-1.5 2.9-2.4.2-.2.4-.5.6-.7l.2-.3.3-.4c.3-.5.5-1 .7-1.6.4-1.2.6-2.4.8-3.7s.3-2.6.4-3.9c.3-5.1.1-10-.1-14.1s-.5-7.6-.7-10c-.1-1.2-.2-2.2-.3-2.8s-.1-1-.1-1c-.2-1.5.9-2.9 2.4-3 1.5-.2 2.9.9 3 2.4.1.2.1.3.1.3zm-20.9 14.1s-.3.1-.9.4l-2.6.9-4 1.3-5.3 1.4c-2 .5-4.1.8-6.4 1.1l-1.7.2c-.6 0-1.2.1-1.8.1s-1.2 0-1.8.1c-.7 0-1.1.1-2.3-.1-1.8-.4-3.3-1.8-4-3.5-.3-.9-.4-1.8-.2-2.7 0-.2.1-.4.2-.7l.2-.5c.1-.3.2-.7.4-1 .5-1.3 1.2-2.6 2-3.7s1.8-2.2 2.8-3.1c.2-.2.5-.5.8-.7s.6-.4.8-.6c.3-.2.6-.4.8-.6l.3-.3s.2-.1.1 0l.2-.1.1-.1.2-.1c.1 0 .2-.1.4-.2.1 0 .2-.1.3-.1.2-.1.4-.1.7-.1.4 0 .9 0 1.3.1.9.2 1.7.6 2.3 1.3.3.3.6.7.7 1.1l.2.6v.5c0 .3.1.6.1 1s.1.7.1 1c.1 1.3-.1 2.6-.3 3.9-.4 2.5-1.2 4.8-2.1 6.9-.2.5-.5 1-.7 1.5s-.5 1-.7 1.5l-1.5 2.7c-.5.9-1 1.6-1.5 2.4l-1.4 2.1c-.4.7-.9 1.3-1.3 1.8l-1.1 1.5-2.2 2.8 2-2.9 1-1.6 1.2-1.9 1.3-2.2 1.3-2.4 1.3-2.7 1.2-3c.7-2.1 1.3-4.3 1.6-6.6.1-1.2.2-2.4 0-3.5 0-.3-.1-.6-.1-.8s-.1-.6-.2-.9v-.5l-.1-.1c-.1-.2-.2-.4-.4-.5-.3-.3-.7-.5-1.1-.5h-.6c-.1 0-.2 0-.3.1h-.2l-.1.1-.2.1c-.1 0 .1 0 0 0l-.3.3c-.2.2-.5.4-.7.6s-.5.4-.7.6l-.6.6c-1.7 1.7-2.9 3.8-3.7 6-.1.3-.2.5-.2.8l-.1.5v.2c0 .4 0 .7.2 1 .3.6.9 1 1.4 1.1h.2c.3 0 .6 0 .9-.1.6 0 1.1-.1 1.7-.2s1.1-.2 1.7-.2l1.6-.3c2.1-.4 4.1-.9 5.9-1.5l4.9-1.6c1.5-.5 2.7-1 3.7-1.5l2.3-1c.5-.2.8-.4.8-.4 1.4-.7 3-.1 3.7 1.3.5 1.3-.1 3-1.5 3.6zM101.4 32v1.6c0 1 .1 2.5.3 4.4s.6 4.2 1.5 6.7c.4 1.3 1 2.5 1.7 3.8l.6.9.2.2v.1l.1.1a.78.78 0 0 0 .4.4c.5.5 1.2.9 1.9 1 .7.2 1.5.1 2.2-.2s1.4-.7 2-1.3c1.2-1.1 1.9-2.8 2.4-4.5.5-1.8.6-3.7.6-5.6v-1.2c0 .1 0 0 0 0V38c0-.1 0-.2-.1-.2-.1-.2-.2-.3-.3-.4-.2-.2-.6-.4-.9-.4h-.5c-.1 0-.2 0-.2.1h-.1l-.2.1c-3.7 1.7-7.2 4-10.5 6.6a48.1 48.1 0 0 0-4.8 4.2c-.8.7-1.5 1.5-2.3 2.3l-1.2 1.2-.2.3c-.8.6-1.8.7-2.8.4-.5-.1-.9-.4-1.2-.7-.2-.2-.4-.4-.5-.6-.1-.1-.1-.2-.2-.3l-.1-.2c-.1-.2-.3-.5-.4-.7-.1-.3-.3-.5-.4-.8a32.35 32.35 0 0 1-1.3-3.3c-.4-1.1-.6-2.3-.7-3.4-.1-.6-.2-1.2-.2-1.8v-1.5s0-.2 0 .1c0-.1 0 .1 0 .2.1.4.4.7.7.8s.6.2 1 0c.2-.1.3-.2.4-.3 0 0 0-.1.1-.1v.1l-.2.4c-.3.5-.6.9-.9 1.4-.6.9-1.2 1.8-1.9 2.7-1.3 1.8-2.7 3.4-4.2 5-.7.8-1.5 1.5-2.3 2.2l-1.2 1-.4.1-.1.1s.1 0-.1.1l-.3.2-.6.3c-.2.1-.4.2-.6.2-1.6.5-3.3.2-4.6-.7-.6-.4-1.2-1.1-1.6-1.7-.1-.2-.2-.4-.3-.5v-.3L69 50c-.1-.2-.2-.4-.3-.7a13.14 13.14 0 0 1-.5-1.5c-.1-.2-.1-.5-.2-.7 0-.2-.1-.5-.2-.7 0-.2-.1-.5-.2-.7 0-.2-.1-.5-.1-.7s-.1-.5-.1-.7-.1-.5-.1-.7c-.2-.9-.2-1.8-.3-2.8 0-.9-.1-1.8-.2-2.6-.1-3.4.1-6.5.3-9.2l.8-7c.2-1 .3-1.8.4-2.6.1-.7.2-1.4.4-1.9l.3-1.6c.3-1.5 1.7-2.5 3.2-2.2s2.5 1.7 2.2 3.2v.2l-.3 1.5c-.1.5-.2 1.1-.4 1.8s-.3 1.5-.5 2.5c-.4 1.8-.7 4.1-1.1 6.7-.3 2.6-.6 5.5-.6 8.6v2.4c0 .8.1 1.7.2 2.5 0 .2 0 .4.1.6s0 .4.1.6c0 .2 0 .4.1.6 0 .2.1.4.1.6s.1.4.1.6.1.4.2.6l.3 1.2c.1.2.2.4.2.7v.3s0 .1 0 0v.1a1.38 1.38 0 0 0 .3.4c.3.2.7.3 1 .2h.1l.3-.2c-.2.1 0 0-.1 0h.1l.2-.1 1.2-.8c.7-.6 1.5-1.2 2.2-1.9 1.4-1.4 2.8-2.9 4-4.5.6-.8 1.3-1.6 1.9-2.5.3-.4.6-.8.9-1.3l.2-.4v-.1c0-.1.1-.1.1-.2.2-.2.4-.4.7-.6a1.91 1.91 0 0 1 1.8 0c.6.2 1 .7 1.2 1.4 0 .2.1.5.1.4v1.5c0 .5 0 1 .1 1.5.1 1 .3 2 .6 3 .2 1 .6 2 1 2.9.1.2.2.5.3.7s.2.4.4.7l.1.2.1.1s.1.1.2.1c.1.1.3 0 .4 0l.1-.1c.1-.1 0 0 0 0l.9-.9c.8-.8 1.6-1.5 2.4-2.2 1.7-1.5 3.4-2.8 5.1-4.1 3.5-2.6 7.3-4.8 11.1-6.4l.2-.1c.1 0 .2-.1.2-.1.2-.1.4-.1.5-.1h1c.7.1 1.3.5 1.8.9.2.2.4.5.6.8.1.2.1.3.2.5 0 .2.1.4.1.5v1.5c-.1 2-.3 4-.9 5.9-.6 1.8-1.5 3.7-2.9 5-.7.6-1.5 1.1-2.4 1.5-.9.3-1.9.3-2.8.1s-1.7-.7-2.2-1.3c-.2-.2-.3-.4-.4-.5l-.1-.1v-.2l-.2-.2c-.2-.4-.4-.7-.6-1-.7-1.4-1.3-2.7-1.6-4-.8-2.6-1.1-4.9-1.3-6.8s-.2-3.4-.1-4.4c.3-1.1.4-1.7.4-1.7zM58 29.6s0 .1.1.4c.1.2.2.6.2 1.1 0 .2.1.5.1.8s.1.6.1.9v2.3c0 .4-.1.9-.1 1.3-.1.5-.1.9-.2 1.4l-.3 1.5c-.1.5-.2 1-.4 1.5-.1.5-.2 1.1-.4 1.6s-.3 1.1-.5 1.6c-.3 1.1-.7 2.1-1.1 3.2l-.6 1.6c-.2.5-.4 1.1-.7 1.6-.4 1.1-.9 2-1.4 3l-1.4 2.8-1.3 2.4-1.1 2-.9 1.5-.8 1.3c-.8 1.3-2.5 1.8-3.8 1s-1.8-2.5-1-3.8c.1-.1.2-.2.2-.4l.1-.1s.4-.4.9-1.1c.3-.4.7-.8 1.1-1.3l1.4-1.7 1.6-2.1c.6-.7 1.1-1.6 1.7-2.4l1.7-2.6.9-1.4.8-1.4 1.5-2.9c.2-.5.5-1 .7-1.5l1.2-2.8.5-1.4c.2-.4.3-.9.4-1.3l.3-1.3c.1-.4.2-.8.2-1.1 0-.4.1-.7.2-1.1 0-.3 0-.6.1-.9v-1.9c.1-.2 0-.3 0-.3zm3.6-20.7s-.3.1-.9.4-1.5.6-2.6 1-2.4 1.1-3.9 1.8-3.1 1.7-4.9 2.7L44 18.6c-.4.4-.9.7-1.3 1.1-.2.2-.4.4-.7.6l-.6.6-.4.3-.2.3c-.1.1-.2.2-.2.4-.1.1-.2.2-.2.4-.3.5-.5 1-.6 1.6-.2.6-.2 1.1-.2 1.7s.1 1.1.2 1.7c.2.6.4 1.1.7 1.6.2.3.4.6.5.9l.5.9c.7 1.2 1.3 2.4 1.9 3.7.2.3.3.7.4 1v.3l.2.4v.3c.1.4.2.8.2 1.2 0 .2 0 .4.1.6v.6c.1 1.6-.3 3.2-1 4.6-.7 1.5-1.7 2.7-3 3.7-.3.2-.6.5-1 .7l-.3.2h-.2l-.2.1c-.6.3-1.3.6-2 .8-1.3.5-2.7.8-4 1.1-2.6.6-5.2.8-7.7.9h-5.3c-.6 0-1.1 0-1.6-.1-1.1 0-2-.1-3-.2-.9 0-1.8-.2-2.7-.2l-4.4-.5-2.8-.4-1-.2c-1.5-.2-2.6-1.6-2.3-3.1.3-1.2 1.7-2.3 3.2-2h.3a6.59 6.59 0 0 0 .9.2c.6.1 1.5.3 2.7.6l4.2.7 2.6.4 2.8.4c.5 0 1 .1 1.5.2.5 0 1 .1 1.6.1h3.3c2.3 0 4.6 0 7-.4 1.2-.2 2.4-.4 3.6-.8.6-.2 1.1-.3 1.7-.6l.8-.4c.2-.1.5-.3.7-.4.9-.6 1.7-1.5 2.2-2.4.5-1 .9-2.1.9-3.3v-.8c0-.3-.1-.6-.1-.8v-.2l-.1-.2-.2-.5-.3-.9c-.4-1.2-1-2.4-1.6-3.6l-.4-.9c-.2-.3-.3-.6-.5-.9-.4-.7-.6-1.4-.8-2.1s-.2-1.5-.2-2.2.2-1.5.4-2.1.5-1.3.9-1.9c.1-.2.2-.3.3-.4.1-.2.2-.3.3-.4l.4-.4.4-.3.4-.4.4-.3c.2-.2.5-.4.7-.6l1.5-1.1A39.91 39.91 0 0 1 49 14l5.1-2.4 4-1.6 2.6-.9.9-.2zm84-5.9l1.1.6 1.1.7 1.4 1.1c.5.5 1 1 1.4 1.8.2.4.4.9.4 1.4s-.2 1.1-.5 1.6-.7.8-1.1 1.1l-.3.2s-.1 0-.2.1l-.2.1c-.3.1-.5.2-.7.3-1 .3-2.1.4-3.1.2-.5-.1-1-.3-1.5-.5-.2-.1-.5-.2-.7-.4-.1-.1-.2-.1-.4-.2-.1 0-.2-.1-.3-.2-.4-.3-.8-.6-1.2-1.1a3.01 3.01 0 0 1-.7-2c0-.4.1-.9.2-1.3.2-.4.4-.7.6-.9.5-.5.9-.7 1.4-.9l.3-.1c.1 0 .2-.1.3-.1.2-.1.4-.1.7-.2.4-.1.9-.2 1.4-.1s1 .3 1.4.6.6.7.7 1c.2.7.2 1.2.2 1.7 0 .4-.1.7-.2.9s-.1.3-.1.3c0 .1-.2.1-.2.1s-.1 0-.1-.1c0 0 0-.1-.1-.3s-.2-.5-.3-.8c-.2-.3-.4-.7-.6-.9a.76.76 0 0 0-.4-.2c-.1 0-.2 0-.3.1-.1 0-.3.1-.5.2-.1.1-.2.1-.3.2a.76.76 0 0 1-.4.2c-.2.2-.4.3-.4.4 0 0 0 .1 0 0v-.1c0-.1 0 0 .1.3a3.04 3.04 0 0 0 .5.7l.4.4a1.38 1.38 0 0 0 .4.3c.3.2.6.3.9.4.6.2 1.3.3 1.9.2.2 0 .3-.1.4-.1h.2l.2-.1h.1c.3-.1.6-.3.7-.5.2-.2.3-.3.3-.6 0-.2 0-.5-.1-.8-.2-.6-.6-1.1-.9-1.6-.7-1-1.5-1.7-2-2.2l-.9-.7c-.1 0-.1-.2 0-.2-.2 0-.1 0 0 0zM79.2 61.8l1.1.6 1.1.7 1.4 1.1c.5.5 1 1 1.4 1.8.2.4.4.9.4 1.4 0 .6-.2 1.1-.5 1.6s-.7.8-1.1 1.1l-.3.2s-.1 0-.2.1l-.2.1c-.3.1-.5.2-.7.3-1 .3-2.1.4-3.1.2-.5-.1-1-.3-1.5-.5-.2-.1-.5-.2-.7-.4-.1-.1-.2-.1-.4-.2-.1 0-.2-.1-.3-.2-.4-.3-.8-.6-1.2-1.1a3.01 3.01 0 0 1-.7-2c0-.4.1-.9.2-1.3.2-.4.4-.7.6-.9.5-.5.9-.7 1.4-.9l.2-.1c.1 0 .2-.1.3-.1.2-.1.4-.1.7-.2.4-.1.9-.2 1.4-.1s1 .3 1.4.6.6.7.7 1c.2.7.2 1.2.2 1.7 0 .4-.1.7-.2.9s-.1.3-.1.3c0 .1-.2.1-.2.1s-.1 0-.1-.1c0 0 0-.1-.1-.3s-.2-.5-.3-.8c-.2-.3-.4-.7-.6-.9a.76.76 0 0 0-.4-.2c-.1 0-.2 0-.3.1-.1 0-.3.1-.5.2-.1.1-.2.1-.3.2a.76.76 0 0 1-.4.2c-.2.2-.4.3-.4.4 0 0 0 .1 0 0v-.1c0-.1 0 0 .1.3a3.04 3.04 0 0 0 .5.7l.4.4a1.38 1.38 0 0 0 .4.3c.3.2.6.3.9.4.6.2 1.3.3 1.9.2.2 0 .3-.1.4-.1h.2l.2-.1h.1c.3-.1.6-.3.7-.5.2-.2.3-.3.3-.6 0-.2 0-.5-.1-.8-.2-.6-.6-1.1-.9-1.6-.7-1-1.5-1.7-2-2.2l-1-.7c-.1 0-.1-.2 0-.2 0 0 .1-.1.2 0z"/></svg>