<svg xmlns="http://www.w3.org/2000/svg" xmlns:xlink="http://www.w3.org/1999/xlink" viewBox="0 0 573.2 577.6"><style><![CDATA[.A{fill:none;stroke:#cd4646;stroke-width:5;stroke-linecap:round;stroke-linejoin:round;stroke-miterlimit:10}]]></style><path class="A" d="M199.3 117L184 102.7"/><path class="A" d="M184.5 117.5l14.3-15.2m18 234.2l-15.2-14.3"/><path class="A" d="M202 336.9l14.3-15.2M31.2 459.1L16 444.8"/><path class="A" d="M16.4 459.5l14.3-15.2M24.6 96.2L9.3 81.8"/><path class="A" d="M9.8 96.6l14.3-15.2M567 116.7l-15.3-14.3"/><path class="A" d="M552.2 117.1l14.3-15.2M387 194.5l-15.2-14.3"/><path class="A" d="M372.3 194.9l14.3-15.2m74.8 184.6L446.1 350"/><path class="A" d="M446.6 364.8l14.3-15.3m-11.3 153.1l-15.3-14.3"/><path class="A" d="M434.8 503.1l14.3-15.3M312.6 139.9l-10.5-18.1-10.5 18.1-10.4 18.2h41.9zm-34.7 222l-10.5-18.1-10.5 18.1-10.4 18.2h41.9zm120.3 68.2l-10.5-18.2-10.4 18.2-10.5 18.2h41.9zm69.3-139.4l5.4-20.3-20.3 5.5-20.2 5.4 29.6 29.6zm-345-235.3l5.5-20.3-20.3 5.5L87.4 46l14.9 14.8 14.8 14.8zm-14.3 437.9l5.4-20.3-20.3 5.5-20.2 5.4 29.7 29.7zM488.7 78l18.2-10.5-18.2-10.4-18.2-10.5v20.9l.1 21zm-381 209.6l18.2-10.5-36.4-21v21l.1 21zm240.4-34.4a15.9 15.9 0 1 1-15.9-15.9c8.7 0 15.9 7.1 15.9 15.9zM267.7 75.6a15.9 15.9 0 1 1-15.9-15.9c8.7 0 15.9 7.2 15.9 15.9zm10.1 469.7a15.88 15.88 0 1 1-31.8 0 15.88 15.88 0 1 1 31.8 0zm42.6-23.8a15.88 15.88 0 1 1 31.8 0M193.4 277.1a15.88 15.88 0 1 1 31.8 0M26 147.9c0-8.8 7.1-15.9 15.8-15.9s15.8 7.1 15.8 15.9M427.1 174c-8.8 0-15.9-7.1-15.9-15.8s7.1-15.8 15.9-15.8M43.9 545.2c-8.8 0-15.9-7.1-15.9-15.8s7.1-15.8 15.9-15.8M214.7 39.1c-8.8 0-15.9-7.1-15.9-15.8s7.1-15.8 15.9-15.8M51.8 377.9A15.88 15.88 0 1 1 35.9 362a15.88 15.88 0 0 1 15.9 15.9zM542.6 396a15.9 15.9 0 1 1-15.9-15.9c8.7 0 15.9 7.1 15.9 15.9zm-44-253.7h31.7V174h-31.7zm-357.9 15.8h31.7v31.7h-31.7zm-1.6 202.1h31.7v31.7h-31.7zm359.5 153.4h31.7v31.7h-31.7zM367.2 7.5h31.7v31.7h-31.7zm-45.4 321.8c-6.9 0-5.7-12.3-14.5-12.3m43.5 12.3c-6.9 0-5.7-12.3-14.5-12.3m-14.5 12.3c6.9 0 5.7-12.3 14.5-12.3"/><path class="A" d="M365.4,317.1"/><path class="A" d="M350.8 329.3c6.9 0 5.7-12.3 14.5-12.3m39.3 240.6c-6.9 0-5.7-12.3-14.5-12.3m43.5 12.3c-6.9 0-5.7-12.3-14.5-12.3m-14.5 12.3c6.9 0 5.7-12.3 14.5-12.3"/><path class="A" d="M448.2,545.3"/><path class="A" d="M433.6 557.6c6.9 0 5.7-12.3 14.5-12.3m-3.9-316.8c-6.9 0-5.7-12.3-14.5-12.3m43.6 12.3c-6.9 0-5.7-12.3-14.5-12.3m-14.6 12.3c6.9 0 5.7-12.3 14.5-12.3"/><path class="A" d="M487.8,216.3"/><path class="A" d="M473.3 228.5c6.9 0 5.7-12.3 14.5-12.3m-447.9-2.5c-6.9 0-5.7-12.3-14.5-12.3M69 213.7c-6.9 0-5.7-12.3-14.5-12.3m-14.6 12.3c6.9 0 5.7-12.3 14.5-12.3"/><path class="A" d="M83.5,201.4"/><path class="A" d="M69 213.7c6.9 0 5.7-12.3 14.5-12.3M324.2 49.6c0 6.9-12.3 5.7-12.3 14.5m12.3-43.5c0 6.9-12.3 5.7-12.3 14.5m12.3 14.5c0-6.9-12.3-5.7-12.3-14.5"/><path class="A" d="M311.9,6"/><path class="A" d="M324.2 20.6c0-6.9-12.3-5.7-12.3-14.5M235 201.7c0 6.9-12.3 5.7-12.3 14.5"/><path class="A" d="M235 172.6c0 6.9-12.3 5.7-12.3 14.5m12.3 14.6c0-6.9-12.3-5.7-12.3-14.5"/><path class="A" d="M222.8,158.1"/><path class="A" d="M235 172.6c0-6.9-12.3-5.7-12.3-14.5m254 286.5c0 6.9-12.3 5.7-12.3 14.5"/><path class="A" d="M476.7 415.6c0 6.9-12.3 5.7-12.3 14.5m12.3 14.5c0-6.9-12.3-5.7-12.3-14.5"/><path class="A" d="M464.4,401"/><path class="A" d="M476.7 415.6c0-6.9-12.3-5.7-12.3-14.5m-287.5 66.5c0 6.9-12.3 5.7-12.3 14.5"/><path class="A" d="M176.9 438.5c0 6.9-12.3 5.7-12.3 14.5m12.3 14.6c0-6.9-12.3-5.7-12.3-14.5"/><path class="A" d="M164.6,423.9"/><path class="A" d="M176.9 438.5c0-6.9-12.3-5.7-12.3-14.5m192-62.1h35.9M4 258.3h35.8M359.3 91.6h35.8m105.6-81h35.8M147 545.2h35.8m56.3-69.3l25.3-25.3M29.1 36l25.4-25.4M518.6 296l25.4-25.4M330.5 446.9c-2.9 1.8-6.8 1-8.6-2-1.8-2.9-1-6.8 2-8.6 2.9-1.8 6.8-1 8.6 2 1.9 2.8 1 6.7-2 8.6zm-49.3-172.5c-2.9 1.8-6.8 1-8.6-2-1.8-2.9-1-6.8 2-8.6 2.9-1.8 6.8-1 8.6 2 1.8 2.9.9 6.8-2 8.6z"/><use xlink:href="#B" class="A"/><use xlink:href="#B" x="64.2" y="-197.3" class="A"/><use xlink:href="#B" x="409" y="-200.4" class="A"/><use xlink:href="#B" x="497.5" y="22.9" class="A"/><defs ><path id="B" d="M55.3 327.5c-2.9 1.8-6.8 1-8.6-2-1.8-2.9-1-6.8 2-8.6 2.9-1.8 6.8-1 8.6 2 1.8 2.9.9 6.7-2 8.6z"/></defs></svg>